<svg xmlns="http://www.w3.org/2000/svg" xmlns:xlink="http://www.w3.org/1999/xlink" width="64" height="64" viewBox="0 0 16.94 16.94" id="career">
  <defs>
    <linearGradient id="a">
      <stop offset="0" stop-color="#ffe53b"></stop>
      <stop offset="1" stop-color="#ff2525"></stop>
    </linearGradient>
    <linearGradient xlink:href="#a" id="b" x1="1.059" x2="15.881" y1="8.47" y2="8.47" gradientUnits="userSpaceOnUse"></linearGradient>
    <linearGradient xlink:href="#a" id="c" x1="1.059" x2="15.881" y1="8.47" y2="8.47" gradientUnits="userSpaceOnUse"></linearGradient>
  </defs>
  <path fill="url(#b)" d="m 13.233339,2.3816709 c -0.122548,1e-6 -0.192515,0.060614 -0.236253,0.1033927 -0.04372,0.042777 -0.07203,0.083483 -0.09774,0.1251063 -0.05132,0.083243 -0.09284,0.1730071 -0.132862,0.2621031 -0.04002,0.089095 -0.07703,0.1776649 -0.107523,0.2403896 -0.006,0.012835 -0.0137,0.0245 -0.02121,0.035154 -0.01281,0.0039 -0.02671,0.0073 -0.04132,0.0093 -0.06913,0.0097 -0.164475,0.018917 -0.261583,0.029472 -0.09714,0.010554 -0.196017,0.021859 -0.291055,0.044978 -0.04752,0.011565 -0.09474,0.02436 -0.148888,0.052731 -0.05422,0.028371 -0.133763,0.078861 -0.171638,0.1954139 -0.03791,0.1165498 -0.002,0.2031549 0.02531,0.2579665 0.02721,0.054812 0.05822,0.093507 0.08994,0.1307935 0.06332,0.074569 0.134943,0.1416877 0.207302,0.2073036 0.07233,0.065616 0.145197,0.1273491 0.195417,0.1757691 0.0105,0.010094 0.01901,0.021428 0.02691,0.032053 -2.3e-4,0.013305 -9.9e-4,0.027961 -0.004,0.042387 -0.0122,0.068687 -0.03281,0.1623509 -0.05272,0.2579675 -0.02001,0.095618 -0.03962,0.1914534 -0.04702,0.2889848 -0.004,0.048769 -0.006,0.097879 0.004,0.1581922 0.0102,0.060314 0.03371,0.1528492 0.132862,0.2248805 0.09914,0.072028 0.191756,0.063705 0.25228,0.054802 0.06052,-0.0089 0.106752,-0.02485 0.15199,-0.043427 0.09044,-0.037155 0.177339,-0.085864 0.262103,-0.1344119 0.08473,-0.048539 0.166925,-0.098509 0.2285,-0.1313097 0.01261,-0.0067 0.02551,-0.011364 0.03772,-0.015506 0.0125,0.0042 0.02551,0.0087 0.03821,0.015506 0.06162,0.032803 0.144246,0.082773 0.22901,0.1313097 0.08473,0.048539 0.171107,0.097248 0.261593,0.1344119 0.04522,0.018577 0.08994,0.034524 0.150429,0.043427 0.06052,0.0089 0.154691,0.017237 0.25383,-0.054802 0.09914,-0.072028 0.122628,-0.1645647 0.132862,-0.2248805 0.0102,-0.060314 0.008,-0.109427 0.004,-0.1581922 -0.007,-0.097528 -0.02701,-0.1933681 -0.04702,-0.2889848 -0.02001,-0.095618 -0.04062,-0.1892764 -0.05272,-0.2579675 -0.003,-0.014606 -0.003,-0.029472 -0.003,-0.042907 0.008,-0.010504 0.01661,-0.021569 0.02691,-0.031532 0.05022,-0.048419 0.123058,-0.1101543 0.195417,-0.1757691 0.07233,-0.065616 0.144006,-0.1327373 0.207301,-0.2073036 0.03161,-0.037285 0.06232,-0.07598 0.08943,-0.1307935 0.02721,-0.054812 0.06172,-0.1414167 0.02381,-0.2579665 -0.03782,-0.1165499 -0.117947,-0.1670418 -0.172148,-0.1954139 -0.05422,-0.028371 -0.10085,-0.041176 -0.148368,-0.052731 -0.09504,-0.023119 -0.192396,-0.034434 -0.289504,-0.044978 -0.09714,-0.010554 -0.192496,-0.019818 -0.261583,-0.029472 -0.01461,-0.002 -0.02861,-0.0054 -0.04132,-0.0093 C 13.824,3.1371636 13.81609,3.1254986 13.80979,3.1126636 13.779294,3.0499379 13.74228,2.9613681 13.702274,2.872273 13.662258,2.783178 13.620742,2.6934126 13.569422,2.6101699 13.543711,2.5685435 13.5155,2.5278375 13.471683,2.4850636 13.427966,2.4422868 13.355908,2.3816709 13.233359,2.3816709 Z m 0,0.7423652 c 0.03241,0.072939 0.06563,0.1490607 0.09974,0.2191943 0.03961,0.081362 0.04112,0.1467467 0.17783,0.2460768 0.136713,0.099329 0.199898,0.081042 0.289503,0.093567 0.07813,0.010924 0.159633,0.016957 0.239875,0.02533 -0.05962,0.053601 -0.122949,0.1079125 -0.179391,0.1623279 -0.06513,0.062805 -0.12768,0.083283 -0.179901,0.244009 -0.05222,0.1607193 -0.0137,0.215913 0.002,0.305011 0.01361,0.07691 0.03201,0.1565517 0.04862,0.2347034 -0.06913,-0.039966 -0.140015,-0.082743 -0.208852,-0.11942 -0.07983,-0.042547 -0.120517,-0.093567 -0.289504,-0.093567 -0.168996,0 -0.207051,0.05102 -0.286913,0.093567 -0.06883,0.036674 -0.140295,0.079451 -0.209372,0.11942 0.01671,-0.078151 0.03551,-0.1577901 0.04912,-0.2347034 0.01581,-0.089095 0.05222,-0.1442917 0,-0.305011 -0.05222,-0.1607192 -0.112704,-0.1812053 -0.17784,-0.244009 -0.05642,-0.054411 -0.120267,-0.1087258 -0.179901,-0.1623279 0.07973,-0.0083 0.162765,-0.014486 0.240395,-0.02533 0.08963,-0.012525 0.15278,0.0057 0.289494,-0.093567 0.136714,-0.099329 0.137724,-0.1647178 0.17732,-0.2460768 0.03411,-0.070098 0.06533,-0.1462866 0.09774,-0.2191943 z" color="#000"></path>
  <path fill="url(#c)" d="m 12.439279,5.8220911 a 0.26471398,0.26471398 0 0 0 -0.01551,0.00207 c -0.470932,0.029338 -0.770971,0.3030925 -0.904177,0.5547065 -0.133205,0.251614 -0.138547,0.496289 -0.138547,0.496289 a 0.26471398,0.26471398 0 0 0 0,0.00775 v 1.05875 H 9.2635455 c -0.470319,5.343e-4 -0.7793278,0.282 -0.913999,0.5386828 -0.1346712,0.2566826 -0.144234,0.5061114 -0.144234,0.5061114 a 0.26471398,0.26471398 0 0 0 0,0.013441 v 1.0587502 h -2.1175 a 0.26471398,0.26471398 0 0 0 -0.015509,0 c -0.4934527,0.02965 -0.8017678,0.303646 -0.9295081,0.562461 -0.1277402,0.258814 -0.1137329,0.507662 -0.1137329,0.507662 v 1.04686 h -2.1149152 -0.00207 c -0.4754688,-0.0044 -0.7887235,0.277706 -0.9217536,0.53713 -0.1332405,0.259832 -0.1369964,0.513864 -0.1369964,0.513865 a 0.26471398,0.26471398 0 0 0 0,0.0078 v 0.795096 H 1.3244714 A 0.26468751,0.26468751 0 0 0 1.05875,14.293125 0.26468751,0.26468751 0 0 0 1.3244714,14.558846 H 15.617079 a 0.26468751,0.26468751 0 0 0 0.263654,-0.265721 0.26468751,0.26468751 0 0 0 -0.263654,-0.263654 H 15.087704 V 6.8829089 c 0,0 0.0042,-0.2542871 -0.126657,-0.5159338 -0.130824,-0.2616467 -0.446316,-0.544884 -0.931576,-0.544884 z m 0.01758,0.529375 h 1.572616 c 0.308801,0 0.389308,0.1168966 0.457,0.2522802 0.06769,0.1353838 0.07238,0.2791626 0.07238,0.2791626 V 14.029471 H 11.909904 V 8.2053125 6.8885956 c 0,0 0.0079,-0.1282044 0.07858,-0.2615857 0.07061,-0.1333813 0.166459,-0.2567376 0.468372,-0.2755438 z M 9.2635455,8.470517 h 2.1175005 v 5.558954 H 8.7341705 V 10.322296 9.0117822 c 0,0 0.010743,-0.145232 0.084266,-0.2853662 0.073523,-0.1401341 0.1600818,-0.2555766 0.445109,-0.255899 z m -3.160224,2.1175 h 2.101991 v 3.441454 h -2.646875 v -1.590192 -1.321887 a 0.26471398,0.26471398 0 0 0 0,-5.17e-4 0.26471398,0.26471398 0 0 0 0,-5.17e-4 0.26471398,0.26471398 0 0 0 0,-5.17e-4 0.26471398,0.26471398 0 0 0 0,-5.17e-4 0.26471398,0.26471398 0 0 0 0,-5.17e-4 0.26471398,0.26471398 0 0 0 0,-5.17e-4 0.26471398,0.26471398 0 0 0 0,-5.17e-4 0.26471398,0.26471398 0 0 0 0,-5.17e-4 0.26471398,0.26471398 0 0 0 0,-5.17e-4 0.26471398,0.26471398 0 0 0 0,-5.17e-4 0.26471398,0.26471398 0 0 0 0,-5.17e-4 0.26471398,0.26471398 0 0 0 0,-5.17e-4 0.26471398,0.26471398 0 0 0 0,-5.17e-4 0.26471398,0.26471398 0 0 0 0,-5.17e-4 0.26471398,0.26471398 0 0 0 0,-5.17e-4 0.26471398,0.26471398 0 0 0 0,-5.17e-4 0.26471398,0.26471398 0 0 0 0,-5.16e-4 0.26471398,0.26471398 0 0 0 0,-5.17e-4 0.26471398,0.26471398 0 0 0 0,-5.17e-4 0.26471398,0.26471398 0 0 0 0,-5.17e-4 0.26471398,0.26471398 0 0 0 0,-5.17e-4 0.26471398,0.26471398 0 0 0 0,-5.17e-4 0.26471398,0.26471398 0 0 0 0,-5.17e-4 c 0,0 -0.00314,-0.12445 0.058934,-0.250213 0.062072,-0.125763 0.1505276,-0.247115 0.48595,-0.267272 z M 2.8815784,12.705 c 0.00857,-1.22e-4 0.017922,-9.6e-5 0.026882,0 a 0.26471398,0.26471398 0 0 0 0.00362,0 h 2.116983 v 1.324471 H 2.3827045 V 13.24213 c 0,0 0.00661,-0.147578 0.078062,-0.286918 0.069219,-0.134984 0.1498331,-0.246361 0.4208119,-0.250212 z" color="#000"></path>
</svg>
